<svg width="16" height="16" viewBox="0 0 16 16" fill="none" xmlns="http://www.w3.org/2000/svg">
<g opacity="0.6">
<path d="M8.00132 3.01932C9.56732 1.61332 11.9873 1.65999 13.496 3.17132C15.004 4.68332 15.056 7.09132 13.6533 8.66199L7.99999 14.3233L2.34799 8.66199C0.945322 7.09132 0.997989 4.67932 2.50532 3.17132C4.01532 1.66199 6.43066 1.61132 8.00132 3.01932ZM12.552 4.11332C11.552 3.11199 9.93865 3.07132 8.89199 4.01132L8.00199 4.80999L7.11132 4.01199C6.06132 3.07065 4.45132 3.11199 3.44865 4.11465C2.45532 5.10799 2.40532 6.69799 3.32066 7.74865L8.00065 12.436L12.6807 7.74932C13.5967 6.69799 13.5467 5.10999 12.552 4.11332Z" fill="black"/>
</g>
</svg>
