<svg width="18" height="18" viewBox="0 0 18 18" fill="none" xmlns="http://www.w3.org/2000/svg">
<path d="M17.25 13.0517V16.293C17.2501 16.5251 17.1622 16.7486 17.004 16.9183C16.8457 17.0881 16.629 17.1916 16.3975 17.2078C15.9969 17.2353 15.6697 17.25 15.4167 17.25C7.31608 17.25 0.75 10.6839 0.75 2.58333C0.75 2.33033 0.76375 2.00308 0.792167 1.6025C0.808412 1.37099 0.911866 1.15426 1.08165 0.996041C1.25144 0.837823 1.47492 0.749895 1.707 0.75H4.94833C5.06204 0.749885 5.17172 0.792037 5.25608 0.868269C5.34045 0.9445 5.39346 1.04937 5.40483 1.1625C5.42592 1.37333 5.44517 1.54108 5.4635 1.6685C5.64567 2.93985 6.019 4.17635 6.57083 5.33608C6.65792 5.51942 6.60108 5.7385 6.43608 5.85583L4.45792 7.26933C5.66742 10.0876 7.91334 12.3335 10.7316 13.543L12.1433 11.5685C12.201 11.4878 12.2851 11.43 12.3811 11.405C12.4771 11.3801 12.5788 11.3896 12.6685 11.4319C13.8281 11.9827 15.0643 12.3551 16.3352 12.5365C16.4626 12.5548 16.6303 12.575 16.8393 12.5952C16.9523 12.6067 17.0569 12.6599 17.133 12.7442C17.209 12.8285 17.2511 12.9381 17.2509 13.0517H17.25Z" fill="#008F48"/>
</svg>
