<svg width="20" height="20" viewBox="0 0 20 20" fill="none" xmlns="http://www.w3.org/2000/svg">
<g opacity="0.7">
<path d="M17.5 13.6833V16.63C17.5001 16.841 17.4202 17.0441 17.2763 17.1985C17.1325 17.3528 16.9355 17.4469 16.725 17.4617C16.3608 17.4867 16.0633 17.5 15.8333 17.5C8.46917 17.5 2.5 11.5308 2.5 4.16667C2.5 3.93667 2.5125 3.63917 2.53833 3.275C2.5531 3.06454 2.64715 2.86751 2.8015 2.72367C2.95585 2.57984 3.15902 2.4999 3.37 2.5H6.31667C6.42003 2.4999 6.51975 2.53822 6.59644 2.60752C6.67313 2.67682 6.72133 2.77215 6.73167 2.875C6.75083 3.06667 6.76833 3.21917 6.785 3.335C6.95061 4.49077 7.29 5.61486 7.79167 6.66917C7.87083 6.83583 7.81917 7.035 7.66917 7.14167L5.87083 8.42667C6.97038 10.9887 9.01212 13.0305 11.5742 14.13L12.8575 12.335C12.91 12.2617 12.9865 12.2091 13.0737 12.1864C13.161 12.1637 13.2535 12.1723 13.335 12.2108C14.3892 12.7116 15.513 13.0501 16.6683 13.215C16.7842 13.2317 16.9367 13.25 17.1267 13.2683C17.2294 13.2789 17.3245 13.3271 17.3936 13.4038C17.4628 13.4805 17.501 13.5801 17.5008 13.6833H17.5Z" fill="white"/>
</g>
</svg>
