<svg width="20" height="20" viewBox="0 0 20 20" fill="none" xmlns="http://www.w3.org/2000/svg">
<g opacity="0.5">
<path d="M14.167 2.50004H17.5003C17.7213 2.50004 17.9333 2.58784 18.0896 2.74412C18.2459 2.9004 18.3337 3.11236 18.3337 3.33337V16.6667C18.3337 16.8877 18.2459 17.0997 18.0896 17.256C17.9333 17.4122 17.7213 17.5 17.5003 17.5H2.50033C2.27931 17.5 2.06735 17.4122 1.91107 17.256C1.75479 17.0997 1.66699 16.8877 1.66699 16.6667V3.33337C1.66699 3.11236 1.75479 2.9004 1.91107 2.74412C2.06735 2.58784 2.27931 2.50004 2.50033 2.50004H5.83366V0.833374H7.50033V2.50004H12.5003V0.833374H14.167V2.50004ZM12.5003 4.16671H7.50033V5.83337H5.83366V4.16671H3.33366V7.50004H16.667V4.16671H14.167V5.83337H12.5003V4.16671ZM16.667 9.16671H3.33366V15.8334H16.667V9.16671Z" fill="black"/>
</g>
</svg>
